<svg width="247" height="255" viewBox="0 0 247 255" fill="none" xmlns="http://www.w3.org/2000/svg">
<ellipse cx="2.64278" cy="2.50827" rx="2.05318" ry="2.44431" fill="#EBEBEB"/>
<ellipse cx="15.3619" cy="2.50815" rx="2.05318" ry="2.44431" fill="#EBEBEB"/>
<ellipse cx="28.081" cy="2.50815" rx="2.05318" ry="2.44431" fill="#EBEBEB"/>
<ellipse cx="40.8002" cy="2.50815" rx="2.05318" ry="2.44431" fill="#EBEBEB"/>
<ellipse cx="53.5193" cy="2.50815" rx="2.05318" ry="2.44431" fill="#EBEBEB"/>
<ellipse cx="66.2384" cy="2.50815" rx="2.05318" ry="2.44431" fill="#EBEBEB"/>
<ellipse cx="78.9575" cy="2.50815" rx="2.05318" ry="2.44431" fill="#EBEBEB"/>
<ellipse cx="91.6766" cy="2.50815" rx="2.05318" ry="2.44431" fill="#EBEBEB"/>
<ellipse cx="104.396" cy="2.50815" rx="2.05318" ry="2.44431" fill="#EBEBEB"/>
<ellipse cx="117.115" cy="2.50815" rx="2.05318" ry="2.44431" fill="#EBEBEB"/>
<ellipse cx="129.834" cy="2.50815" rx="2.05318" ry="2.44431" fill="#EBEBEB"/>
<ellipse cx="142.553" cy="2.50815" rx="2.05318" ry="2.44431" fill="#EBEBEB"/>
<ellipse cx="155.272" cy="2.50815" rx="2.05318" ry="2.44431" fill="#EBEBEB"/>
<ellipse cx="167.991" cy="2.50815" rx="2.05318" ry="2.44431" fill="#EBEBEB"/>
<ellipse cx="180.71" cy="2.50815" rx="2.05318" ry="2.44431" fill="#EBEBEB"/>
<ellipse cx="193.429" cy="2.50815" rx="2.05318" ry="2.44431" fill="#EBEBEB"/>
<ellipse cx="206.149" cy="2.50815" rx="2.05318" ry="2.44431" fill="#EBEBEB"/>
<ellipse cx="218.868" cy="2.50815" rx="2.05318" ry="2.44431" fill="#EBEBEB"/>
<ellipse cx="231.587" cy="2.50815" rx="2.05318" ry="2.44431" fill="#EBEBEB"/>
<ellipse cx="244.306" cy="2.50815" rx="2.05318" ry="2.44431" fill="#EBEBEB"/>
<ellipse cx="2.6429" cy="19.1522" rx="2.05318" ry="2.44431" fill="#EBEBEB"/>
<ellipse cx="15.362" cy="19.1522" rx="2.05318" ry="2.44431" fill="#EBEBEB"/>
<ellipse cx="28.0811" cy="19.1522" rx="2.05318" ry="2.44431" fill="#EBEBEB"/>
<ellipse cx="40.8003" cy="19.1522" rx="2.05318" ry="2.44431" fill="#EBEBEB"/>
<ellipse cx="53.5194" cy="19.1522" rx="2.05318" ry="2.44431" fill="#EBEBEB"/>
<ellipse cx="66.2385" cy="19.1522" rx="2.05318" ry="2.44431" fill="#EBEBEB"/>
<ellipse cx="78.9576" cy="19.1522" rx="2.05318" ry="2.44431" fill="#EBEBEB"/>
<ellipse cx="91.6767" cy="19.1522" rx="2.05318" ry="2.44431" fill="#EBEBEB"/>
<ellipse cx="104.396" cy="19.1522" rx="2.05318" ry="2.44431" fill="#EBEBEB"/>
<ellipse cx="117.115" cy="19.1522" rx="2.05318" ry="2.44431" fill="#EBEBEB"/>
<ellipse cx="129.834" cy="19.1522" rx="2.05318" ry="2.44431" fill="#EBEBEB"/>
<ellipse cx="142.553" cy="19.1522" rx="2.05318" ry="2.44431" fill="#EBEBEB"/>
<ellipse cx="155.272" cy="19.1522" rx="2.05318" ry="2.44431" fill="#EBEBEB"/>
<ellipse cx="167.991" cy="19.1522" rx="2.05318" ry="2.44431" fill="#EBEBEB"/>
<ellipse cx="180.71" cy="19.1522" rx="2.05318" ry="2.44431" fill="#EBEBEB"/>
<ellipse cx="193.43" cy="19.1522" rx="2.05318" ry="2.44431" fill="#EBEBEB"/>
<ellipse cx="206.149" cy="19.1522" rx="2.05318" ry="2.44431" fill="#EBEBEB"/>
<ellipse cx="218.868" cy="19.1522" rx="2.05318" ry="2.44431" fill="#EBEBEB"/>
<ellipse cx="231.587" cy="19.1522" rx="2.05318" ry="2.44431" fill="#EBEBEB"/>
<ellipse cx="244.306" cy="19.1522" rx="2.05318" ry="2.44431" fill="#EBEBEB"/>
<ellipse cx="2.6429" cy="35.796" rx="2.05318" ry="2.44431" fill="#EBEBEB"/>
<ellipse cx="15.362" cy="35.796" rx="2.05318" ry="2.44431" fill="#EBEBEB"/>
<ellipse cx="28.0811" cy="35.796" rx="2.05318" ry="2.44431" fill="#EBEBEB"/>
<ellipse cx="40.8003" cy="35.796" rx="2.05318" ry="2.44431" fill="#EBEBEB"/>
<ellipse cx="53.5194" cy="35.796" rx="2.05318" ry="2.44431" fill="#EBEBEB"/>
<ellipse cx="66.2385" cy="35.796" rx="2.05318" ry="2.44431" fill="#EBEBEB"/>
<ellipse cx="78.9576" cy="35.796" rx="2.05318" ry="2.44431" fill="#EBEBEB"/>
<ellipse cx="91.6767" cy="35.796" rx="2.05318" ry="2.44431" fill="#EBEBEB"/>
<ellipse cx="104.396" cy="35.796" rx="2.05318" ry="2.44431" fill="#EBEBEB"/>
<ellipse cx="117.115" cy="35.796" rx="2.05318" ry="2.44431" fill="#EBEBEB"/>
<ellipse cx="129.834" cy="35.796" rx="2.05318" ry="2.44431" fill="#EBEBEB"/>
<ellipse cx="142.553" cy="35.796" rx="2.05318" ry="2.44431" fill="#EBEBEB"/>
<ellipse cx="155.272" cy="35.796" rx="2.05318" ry="2.44431" fill="#EBEBEB"/>
<ellipse cx="167.991" cy="35.796" rx="2.05318" ry="2.44431" fill="#EBEBEB"/>
<ellipse cx="180.71" cy="35.796" rx="2.05318" ry="2.44431" fill="#EBEBEB"/>
<ellipse cx="193.43" cy="35.796" rx="2.05318" ry="2.44431" fill="#EBEBEB"/>
<ellipse cx="206.149" cy="35.796" rx="2.05318" ry="2.44431" fill="#EBEBEB"/>
<ellipse cx="218.868" cy="35.796" rx="2.05318" ry="2.44431" fill="#EBEBEB"/>
<ellipse cx="231.587" cy="35.796" rx="2.05318" ry="2.44431" fill="#EBEBEB"/>
<ellipse cx="244.306" cy="35.796" rx="2.05318" ry="2.44431" fill="#EBEBEB"/>
<ellipse cx="2.6429" cy="52.4398" rx="2.05318" ry="2.44431" fill="#EBEBEB"/>
<ellipse cx="15.362" cy="52.4398" rx="2.05318" ry="2.44431" fill="#EBEBEB"/>
<ellipse cx="28.0811" cy="52.4398" rx="2.05318" ry="2.44431" fill="#EBEBEB"/>
<ellipse cx="40.8003" cy="52.4398" rx="2.05318" ry="2.44431" fill="#EBEBEB"/>
<ellipse cx="53.5194" cy="52.4398" rx="2.05318" ry="2.44431" fill="#EBEBEB"/>
<ellipse cx="66.2385" cy="52.4398" rx="2.05318" ry="2.44431" fill="#EBEBEB"/>
<ellipse cx="78.9576" cy="52.4398" rx="2.05318" ry="2.44431" fill="#EBEBEB"/>
<ellipse cx="91.6767" cy="52.4398" rx="2.05318" ry="2.44431" fill="#EBEBEB"/>
<ellipse cx="104.396" cy="52.4398" rx="2.05318" ry="2.44431" fill="#EBEBEB"/>
<ellipse cx="117.115" cy="52.4398" rx="2.05318" ry="2.44431" fill="#EBEBEB"/>
<ellipse cx="129.834" cy="52.4398" rx="2.05318" ry="2.44431" fill="#EBEBEB"/>
<ellipse cx="142.553" cy="52.4398" rx="2.05318" ry="2.44431" fill="#EBEBEB"/>
<ellipse cx="155.272" cy="52.4398" rx="2.05318" ry="2.44431" fill="#EBEBEB"/>
<ellipse cx="167.991" cy="52.4398" rx="2.05318" ry="2.44431" fill="#EBEBEB"/>
<ellipse cx="180.71" cy="52.4398" rx="2.05318" ry="2.44431" fill="#EBEBEB"/>
<ellipse cx="193.43" cy="52.4398" rx="2.05318" ry="2.44431" fill="#EBEBEB"/>
<ellipse cx="206.149" cy="52.4398" rx="2.05318" ry="2.44431" fill="#EBEBEB"/>
<ellipse cx="218.868" cy="52.4398" rx="2.05318" ry="2.44431" fill="#EBEBEB"/>
<ellipse cx="231.587" cy="52.4398" rx="2.05318" ry="2.44431" fill="#EBEBEB"/>
<ellipse cx="244.306" cy="52.4398" rx="2.05318" ry="2.44431" fill="#EBEBEB"/>
<ellipse cx="2.6429" cy="69.0836" rx="2.05318" ry="2.44431" fill="#EBEBEB"/>
<ellipse cx="15.362" cy="69.0836" rx="2.05318" ry="2.44431" fill="#EBEBEB"/>
<ellipse cx="28.0811" cy="69.0836" rx="2.05318" ry="2.44431" fill="#EBEBEB"/>
<ellipse cx="40.8003" cy="69.0836" rx="2.05318" ry="2.44431" fill="#EBEBEB"/>
<ellipse cx="53.5194" cy="69.0836" rx="2.05318" ry="2.44431" fill="#EBEBEB"/>
<ellipse cx="66.2385" cy="69.0836" rx="2.05318" ry="2.44431" fill="#EBEBEB"/>
<ellipse cx="78.9576" cy="69.0836" rx="2.05318" ry="2.44431" fill="#EBEBEB"/>
<ellipse cx="91.6767" cy="69.0836" rx="2.05318" ry="2.44431" fill="#EBEBEB"/>
<ellipse cx="104.396" cy="69.0836" rx="2.05318" ry="2.44431" fill="#EBEBEB"/>
<ellipse cx="117.115" cy="69.0836" rx="2.05318" ry="2.44431" fill="#EBEBEB"/>
<ellipse cx="129.834" cy="69.0836" rx="2.05318" ry="2.44431" fill="#EBEBEB"/>
<ellipse cx="142.553" cy="69.0836" rx="2.05318" ry="2.44431" fill="#EBEBEB"/>
<ellipse cx="155.272" cy="69.0836" rx="2.05318" ry="2.44431" fill="#EBEBEB"/>
<ellipse cx="167.991" cy="69.0836" rx="2.05318" ry="2.44431" fill="#EBEBEB"/>
<ellipse cx="180.71" cy="69.0836" rx="2.05318" ry="2.44431" fill="#EBEBEB"/>
<ellipse cx="193.43" cy="69.0836" rx="2.05318" ry="2.44431" fill="#EBEBEB"/>
<ellipse cx="206.149" cy="69.0836" rx="2.05318" ry="2.44431" fill="#EBEBEB"/>
<ellipse cx="218.868" cy="69.0836" rx="2.05318" ry="2.44431" fill="#EBEBEB"/>
<ellipse cx="231.587" cy="69.0836" rx="2.05318" ry="2.44431" fill="#EBEBEB"/>
<ellipse cx="244.306" cy="69.0836" rx="2.05318" ry="2.44431" fill="#EBEBEB"/>
<ellipse cx="2.6429" cy="85.7275" rx="2.05318" ry="2.44431" fill="#EBEBEB"/>
<ellipse cx="15.362" cy="85.7275" rx="2.05318" ry="2.44431" fill="#EBEBEB"/>
<ellipse cx="28.0811" cy="85.7275" rx="2.05318" ry="2.44431" fill="#EBEBEB"/>
<ellipse cx="40.8003" cy="85.7275" rx="2.05318" ry="2.44431" fill="#EBEBEB"/>
<ellipse cx="53.5194" cy="85.7275" rx="2.05318" ry="2.44431" fill="#EBEBEB"/>
<ellipse cx="66.2385" cy="85.7275" rx="2.05318" ry="2.44431" fill="#EBEBEB"/>
<ellipse cx="78.9576" cy="85.7275" rx="2.05318" ry="2.44431" fill="#EBEBEB"/>
<ellipse cx="91.6767" cy="85.7275" rx="2.05318" ry="2.44431" fill="#EBEBEB"/>
<ellipse cx="104.396" cy="85.7275" rx="2.05318" ry="2.44431" fill="#EBEBEB"/>
<ellipse cx="117.115" cy="85.7275" rx="2.05318" ry="2.44431" fill="#EBEBEB"/>
<ellipse cx="129.834" cy="85.7275" rx="2.05318" ry="2.44431" fill="#EBEBEB"/>
<ellipse cx="142.553" cy="85.7275" rx="2.05318" ry="2.44431" fill="#EBEBEB"/>
<ellipse cx="155.272" cy="85.7275" rx="2.05318" ry="2.44431" fill="#EBEBEB"/>
<ellipse cx="167.991" cy="85.7275" rx="2.05318" ry="2.44431" fill="#EBEBEB"/>
<ellipse cx="180.71" cy="85.7275" rx="2.05318" ry="2.44431" fill="#EBEBEB"/>
<ellipse cx="193.43" cy="85.7275" rx="2.05318" ry="2.44431" fill="#EBEBEB"/>
<ellipse cx="206.149" cy="85.7275" rx="2.05318" ry="2.44431" fill="#EBEBEB"/>
<ellipse cx="218.868" cy="85.7275" rx="2.05318" ry="2.44431" fill="#EBEBEB"/>
<ellipse cx="231.587" cy="85.7275" rx="2.05318" ry="2.44431" fill="#EBEBEB"/>
<ellipse cx="244.306" cy="85.7275" rx="2.05318" ry="2.44431" fill="#EBEBEB"/>
<ellipse cx="2.6429" cy="102.371" rx="2.05318" ry="2.44431" fill="#EBEBEB"/>
<ellipse cx="15.362" cy="102.371" rx="2.05318" ry="2.44431" fill="#EBEBEB"/>
<ellipse cx="28.0811" cy="102.371" rx="2.05318" ry="2.44431" fill="#EBEBEB"/>
<ellipse cx="40.8003" cy="102.371" rx="2.05318" ry="2.44431" fill="#EBEBEB"/>
<ellipse cx="53.5194" cy="102.371" rx="2.05318" ry="2.44431" fill="#EBEBEB"/>
<ellipse cx="66.2385" cy="102.371" rx="2.05318" ry="2.44431" fill="#EBEBEB"/>
<ellipse cx="78.9576" cy="102.371" rx="2.05318" ry="2.44431" fill="#EBEBEB"/>
<ellipse cx="91.6767" cy="102.371" rx="2.05318" ry="2.44431" fill="#EBEBEB"/>
<ellipse cx="104.396" cy="102.371" rx="2.05318" ry="2.44431" fill="#EBEBEB"/>
<ellipse cx="117.115" cy="102.371" rx="2.05318" ry="2.44431" fill="#EBEBEB"/>
<ellipse cx="129.834" cy="102.371" rx="2.05318" ry="2.44431" fill="#EBEBEB"/>
<ellipse cx="142.553" cy="102.371" rx="2.05318" ry="2.44431" fill="#EBEBEB"/>
<ellipse cx="155.272" cy="102.371" rx="2.05318" ry="2.44431" fill="#EBEBEB"/>
<ellipse cx="167.991" cy="102.371" rx="2.05318" ry="2.44431" fill="#EBEBEB"/>
<ellipse cx="180.71" cy="102.371" rx="2.05318" ry="2.44431" fill="#EBEBEB"/>
<ellipse cx="193.43" cy="102.371" rx="2.05318" ry="2.44431" fill="#EBEBEB"/>
<ellipse cx="206.149" cy="102.371" rx="2.05318" ry="2.44431" fill="#EBEBEB"/>
<ellipse cx="218.868" cy="102.371" rx="2.05318" ry="2.44431" fill="#EBEBEB"/>
<ellipse cx="231.587" cy="102.371" rx="2.05318" ry="2.44431" fill="#EBEBEB"/>
<ellipse cx="244.306" cy="102.371" rx="2.05318" ry="2.44431" fill="#EBEBEB"/>
<ellipse cx="2.6429" cy="119.015" rx="2.05318" ry="2.44431" fill="#EBEBEB"/>
<ellipse cx="15.362" cy="119.015" rx="2.05318" ry="2.44431" fill="#EBEBEB"/>
<ellipse cx="28.0811" cy="119.015" rx="2.05318" ry="2.44431" fill="#EBEBEB"/>
<ellipse cx="40.8003" cy="119.015" rx="2.05318" ry="2.44431" fill="#EBEBEB"/>
<ellipse cx="53.5194" cy="119.015" rx="2.05318" ry="2.44431" fill="#EBEBEB"/>
<ellipse cx="66.2385" cy="119.015" rx="2.05318" ry="2.44431" fill="#EBEBEB"/>
<ellipse cx="78.9576" cy="119.015" rx="2.05318" ry="2.44431" fill="#EBEBEB"/>
<ellipse cx="91.6767" cy="119.015" rx="2.05318" ry="2.44431" fill="#EBEBEB"/>
<ellipse cx="104.396" cy="119.015" rx="2.05318" ry="2.44431" fill="#EBEBEB"/>
<ellipse cx="117.115" cy="119.015" rx="2.05318" ry="2.44431" fill="#EBEBEB"/>
<ellipse cx="129.834" cy="119.015" rx="2.05318" ry="2.44431" fill="#EBEBEB"/>
<ellipse cx="142.553" cy="119.015" rx="2.05318" ry="2.44431" fill="#EBEBEB"/>
<ellipse cx="155.272" cy="119.015" rx="2.05318" ry="2.44431" fill="#EBEBEB"/>
<ellipse cx="167.991" cy="119.015" rx="2.05318" ry="2.44431" fill="#EBEBEB"/>
<ellipse cx="180.71" cy="119.015" rx="2.05318" ry="2.44431" fill="#EBEBEB"/>
<ellipse cx="193.43" cy="119.015" rx="2.05318" ry="2.44431" fill="#EBEBEB"/>
<ellipse cx="206.149" cy="119.015" rx="2.05318" ry="2.44431" fill="#EBEBEB"/>
<ellipse cx="218.868" cy="119.015" rx="2.05318" ry="2.44431" fill="#EBEBEB"/>
<ellipse cx="231.587" cy="119.015" rx="2.05318" ry="2.44431" fill="#EBEBEB"/>
<ellipse cx="244.306" cy="119.015" rx="2.05318" ry="2.44431" fill="#EBEBEB"/>
<ellipse cx="2.6429" cy="135.659" rx="2.05318" ry="2.44431" fill="#EBEBEB"/>
<ellipse cx="15.362" cy="135.659" rx="2.05318" ry="2.44431" fill="#EBEBEB"/>
<ellipse cx="28.0811" cy="135.659" rx="2.05318" ry="2.44431" fill="#EBEBEB"/>
<ellipse cx="40.8003" cy="135.659" rx="2.05318" ry="2.44431" fill="#EBEBEB"/>
<ellipse cx="53.5194" cy="135.659" rx="2.05318" ry="2.44431" fill="#EBEBEB"/>
<ellipse cx="66.2385" cy="135.659" rx="2.05318" ry="2.44431" fill="#EBEBEB"/>
<ellipse cx="78.9576" cy="135.659" rx="2.05318" ry="2.44431" fill="#EBEBEB"/>
<ellipse cx="91.6767" cy="135.659" rx="2.05318" ry="2.44431" fill="#EBEBEB"/>
<ellipse cx="104.396" cy="135.659" rx="2.05318" ry="2.44431" fill="#EBEBEB"/>
<ellipse cx="117.115" cy="135.659" rx="2.05318" ry="2.44431" fill="#EBEBEB"/>
<ellipse cx="129.834" cy="135.659" rx="2.05318" ry="2.44431" fill="#EBEBEB"/>
<ellipse cx="142.553" cy="135.659" rx="2.05318" ry="2.44431" fill="#EBEBEB"/>
<ellipse cx="155.272" cy="135.659" rx="2.05318" ry="2.44431" fill="#EBEBEB"/>
<ellipse cx="167.991" cy="135.659" rx="2.05318" ry="2.44431" fill="#EBEBEB"/>
<ellipse cx="180.71" cy="135.659" rx="2.05318" ry="2.44431" fill="#EBEBEB"/>
<ellipse cx="193.43" cy="135.659" rx="2.05318" ry="2.44431" fill="#EBEBEB"/>
<ellipse cx="206.149" cy="135.659" rx="2.05318" ry="2.44431" fill="#EBEBEB"/>
<ellipse cx="218.868" cy="135.659" rx="2.05318" ry="2.44431" fill="#EBEBEB"/>
<ellipse cx="231.587" cy="135.659" rx="2.05318" ry="2.44431" fill="#EBEBEB"/>
<ellipse cx="244.306" cy="135.659" rx="2.05318" ry="2.44431" fill="#EBEBEB"/>
<ellipse cx="2.6429" cy="152.303" rx="2.05318" ry="2.44431" fill="#EBEBEB"/>
<ellipse cx="15.362" cy="152.303" rx="2.05318" ry="2.44431" fill="#EBEBEB"/>
<ellipse cx="28.0811" cy="152.303" rx="2.05318" ry="2.44431" fill="#EBEBEB"/>
<ellipse cx="40.8003" cy="152.303" rx="2.05318" ry="2.44431" fill="#EBEBEB"/>
<ellipse cx="53.5194" cy="152.303" rx="2.05318" ry="2.44431" fill="#EBEBEB"/>
<ellipse cx="66.2385" cy="152.303" rx="2.05318" ry="2.44431" fill="#EBEBEB"/>
<ellipse cx="78.9576" cy="152.303" rx="2.05318" ry="2.44431" fill="#EBEBEB"/>
<ellipse cx="91.6767" cy="152.303" rx="2.05318" ry="2.44431" fill="#EBEBEB"/>
<ellipse cx="104.396" cy="152.303" rx="2.05318" ry="2.44431" fill="#EBEBEB"/>
<ellipse cx="117.115" cy="152.303" rx="2.05318" ry="2.44431" fill="#EBEBEB"/>
<ellipse cx="129.834" cy="152.303" rx="2.05318" ry="2.44431" fill="#EBEBEB"/>
<ellipse cx="142.553" cy="152.303" rx="2.05318" ry="2.44431" fill="#EBEBEB"/>
<ellipse cx="155.272" cy="152.303" rx="2.05318" ry="2.44431" fill="#EBEBEB"/>
<ellipse cx="167.991" cy="152.303" rx="2.05318" ry="2.44431" fill="#EBEBEB"/>
<ellipse cx="180.71" cy="152.303" rx="2.05318" ry="2.44431" fill="#EBEBEB"/>
<ellipse cx="193.43" cy="152.303" rx="2.05318" ry="2.44431" fill="#EBEBEB"/>
<ellipse cx="206.149" cy="152.303" rx="2.05318" ry="2.44431" fill="#EBEBEB"/>
<ellipse cx="218.868" cy="152.303" rx="2.05318" ry="2.44431" fill="#EBEBEB"/>
<ellipse cx="231.587" cy="152.303" rx="2.05318" ry="2.44431" fill="#EBEBEB"/>
<ellipse cx="244.306" cy="152.303" rx="2.05318" ry="2.44431" fill="#EBEBEB"/>
<ellipse cx="2.6429" cy="168.947" rx="2.05318" ry="2.44431" fill="#EBEBEB"/>
<ellipse cx="15.362" cy="168.947" rx="2.05318" ry="2.44431" fill="#EBEBEB"/>
<ellipse cx="28.0811" cy="168.947" rx="2.05318" ry="2.44431" fill="#EBEBEB"/>
<ellipse cx="40.8003" cy="168.947" rx="2.05318" ry="2.44431" fill="#EBEBEB"/>
<ellipse cx="53.5194" cy="168.947" rx="2.05318" ry="2.44431" fill="#EBEBEB"/>
<ellipse cx="66.2385" cy="168.947" rx="2.05318" ry="2.44431" fill="#EBEBEB"/>
<ellipse cx="78.9576" cy="168.947" rx="2.05318" ry="2.44431" fill="#EBEBEB"/>
<ellipse cx="91.6767" cy="168.947" rx="2.05318" ry="2.44431" fill="#EBEBEB"/>
<ellipse cx="104.396" cy="168.947" rx="2.05318" ry="2.44431" fill="#EBEBEB"/>
<ellipse cx="117.115" cy="168.947" rx="2.05318" ry="2.44431" fill="#EBEBEB"/>
<ellipse cx="129.834" cy="168.947" rx="2.05318" ry="2.44431" fill="#EBEBEB"/>
<ellipse cx="142.553" cy="168.947" rx="2.05318" ry="2.44431" fill="#EBEBEB"/>
<ellipse cx="155.272" cy="168.947" rx="2.05318" ry="2.44431" fill="#EBEBEB"/>
<ellipse cx="167.991" cy="168.947" rx="2.05318" ry="2.44431" fill="#EBEBEB"/>
<ellipse cx="180.71" cy="168.947" rx="2.05318" ry="2.44431" fill="#EBEBEB"/>
<ellipse cx="193.43" cy="168.947" rx="2.05318" ry="2.44431" fill="#EBEBEB"/>
<ellipse cx="206.149" cy="168.947" rx="2.05318" ry="2.44431" fill="#EBEBEB"/>
<ellipse cx="218.868" cy="168.947" rx="2.05318" ry="2.44431" fill="#EBEBEB"/>
<ellipse cx="231.587" cy="168.947" rx="2.05318" ry="2.44431" fill="#EBEBEB"/>
<ellipse cx="244.306" cy="168.947" rx="2.05318" ry="2.44431" fill="#EBEBEB"/>
<ellipse cx="2.6429" cy="185.59" rx="2.05318" ry="2.44431" fill="#EBEBEB"/>
<ellipse cx="15.362" cy="185.59" rx="2.05318" ry="2.44431" fill="#EBEBEB"/>
<ellipse cx="28.0811" cy="185.59" rx="2.05318" ry="2.44431" fill="#EBEBEB"/>
<ellipse cx="40.8003" cy="185.59" rx="2.05318" ry="2.44431" fill="#EBEBEB"/>
<ellipse cx="53.5194" cy="185.59" rx="2.05318" ry="2.44431" fill="#EBEBEB"/>
<ellipse cx="66.2385" cy="185.59" rx="2.05318" ry="2.44431" fill="#EBEBEB"/>
<ellipse cx="78.9576" cy="185.59" rx="2.05318" ry="2.44431" fill="#EBEBEB"/>
<ellipse cx="91.6767" cy="185.59" rx="2.05318" ry="2.44431" fill="#EBEBEB"/>
<ellipse cx="104.396" cy="185.59" rx="2.05318" ry="2.44431" fill="#EBEBEB"/>
<ellipse cx="117.115" cy="185.59" rx="2.05318" ry="2.44431" fill="#EBEBEB"/>
<ellipse cx="129.834" cy="185.59" rx="2.05318" ry="2.44431" fill="#EBEBEB"/>
<ellipse cx="142.553" cy="185.59" rx="2.05318" ry="2.44431" fill="#EBEBEB"/>
<ellipse cx="155.272" cy="185.59" rx="2.05318" ry="2.44431" fill="#EBEBEB"/>
<ellipse cx="167.991" cy="185.59" rx="2.05318" ry="2.44431" fill="#EBEBEB"/>
<ellipse cx="180.71" cy="185.59" rx="2.05318" ry="2.44431" fill="#EBEBEB"/>
<ellipse cx="193.43" cy="185.59" rx="2.05318" ry="2.44431" fill="#EBEBEB"/>
<ellipse cx="206.149" cy="185.59" rx="2.05318" ry="2.44431" fill="#EBEBEB"/>
<ellipse cx="218.868" cy="185.59" rx="2.05318" ry="2.44431" fill="#EBEBEB"/>
<ellipse cx="231.587" cy="185.59" rx="2.05318" ry="2.44431" fill="#EBEBEB"/>
<ellipse cx="244.306" cy="185.59" rx="2.05318" ry="2.44431" fill="#EBEBEB"/>
<ellipse cx="2.6429" cy="202.234" rx="2.05318" ry="2.44431" fill="#EBEBEB"/>
<ellipse cx="15.362" cy="202.234" rx="2.05318" ry="2.44431" fill="#EBEBEB"/>
<ellipse cx="28.0811" cy="202.234" rx="2.05318" ry="2.44431" fill="#EBEBEB"/>
<ellipse cx="40.8003" cy="202.234" rx="2.05318" ry="2.44431" fill="#EBEBEB"/>
<ellipse cx="53.5194" cy="202.234" rx="2.05318" ry="2.44431" fill="#EBEBEB"/>
<ellipse cx="66.2385" cy="202.234" rx="2.05318" ry="2.44431" fill="#EBEBEB"/>
<ellipse cx="78.9576" cy="202.234" rx="2.05318" ry="2.44431" fill="#EBEBEB"/>
<ellipse cx="91.6767" cy="202.234" rx="2.05318" ry="2.44431" fill="#EBEBEB"/>
<ellipse cx="104.396" cy="202.234" rx="2.05318" ry="2.44431" fill="#EBEBEB"/>
<ellipse cx="117.115" cy="202.234" rx="2.05318" ry="2.44431" fill="#EBEBEB"/>
<ellipse cx="129.834" cy="202.234" rx="2.05318" ry="2.44431" fill="#EBEBEB"/>
<ellipse cx="142.553" cy="202.234" rx="2.05318" ry="2.44431" fill="#EBEBEB"/>
<ellipse cx="155.272" cy="202.234" rx="2.05318" ry="2.44431" fill="#EBEBEB"/>
<ellipse cx="167.991" cy="202.234" rx="2.05318" ry="2.44431" fill="#EBEBEB"/>
<ellipse cx="180.71" cy="202.234" rx="2.05318" ry="2.44431" fill="#EBEBEB"/>
<ellipse cx="193.43" cy="202.234" rx="2.05318" ry="2.44431" fill="#EBEBEB"/>
<ellipse cx="206.149" cy="202.234" rx="2.05318" ry="2.44431" fill="#EBEBEB"/>
<ellipse cx="218.868" cy="202.234" rx="2.05318" ry="2.44431" fill="#EBEBEB"/>
<ellipse cx="231.587" cy="202.234" rx="2.05318" ry="2.44431" fill="#EBEBEB"/>
<ellipse cx="244.306" cy="202.234" rx="2.05318" ry="2.44431" fill="#EBEBEB"/>
<ellipse cx="2.6429" cy="218.878" rx="2.05318" ry="2.44431" fill="#EBEBEB"/>
<ellipse cx="15.362" cy="218.878" rx="2.05318" ry="2.44431" fill="#EBEBEB"/>
<ellipse cx="28.0811" cy="218.878" rx="2.05318" ry="2.44431" fill="#EBEBEB"/>
<ellipse cx="40.8003" cy="218.878" rx="2.05318" ry="2.44431" fill="#EBEBEB"/>
<ellipse cx="53.5194" cy="218.878" rx="2.05318" ry="2.44431" fill="#EBEBEB"/>
<ellipse cx="66.2385" cy="218.878" rx="2.05318" ry="2.44431" fill="#EBEBEB"/>
<ellipse cx="78.9576" cy="218.878" rx="2.05318" ry="2.44431" fill="#EBEBEB"/>
<ellipse cx="91.6767" cy="218.878" rx="2.05318" ry="2.44431" fill="#EBEBEB"/>
<ellipse cx="104.396" cy="218.878" rx="2.05318" ry="2.44431" fill="#EBEBEB"/>
<ellipse cx="117.115" cy="218.878" rx="2.05318" ry="2.44431" fill="#EBEBEB"/>
<ellipse cx="129.834" cy="218.878" rx="2.05318" ry="2.44431" fill="#EBEBEB"/>
<ellipse cx="142.553" cy="218.878" rx="2.05318" ry="2.44431" fill="#EBEBEB"/>
<ellipse cx="155.272" cy="218.878" rx="2.05318" ry="2.44431" fill="#EBEBEB"/>
<ellipse cx="167.991" cy="218.878" rx="2.05318" ry="2.44431" fill="#EBEBEB"/>
<ellipse cx="180.71" cy="218.878" rx="2.05318" ry="2.44431" fill="#EBEBEB"/>
<ellipse cx="193.43" cy="218.878" rx="2.05318" ry="2.44431" fill="#EBEBEB"/>
<ellipse cx="206.149" cy="218.878" rx="2.05318" ry="2.44431" fill="#EBEBEB"/>
<ellipse cx="218.868" cy="218.878" rx="2.05318" ry="2.44431" fill="#EBEBEB"/>
<ellipse cx="231.587" cy="218.878" rx="2.05318" ry="2.44431" fill="#EBEBEB"/>
<ellipse cx="244.306" cy="218.878" rx="2.05318" ry="2.44431" fill="#EBEBEB"/>
<ellipse cx="2.6429" cy="235.522" rx="2.05318" ry="2.44431" fill="#EBEBEB"/>
<ellipse cx="15.362" cy="235.522" rx="2.05318" ry="2.44431" fill="#EBEBEB"/>
<ellipse cx="28.0811" cy="235.522" rx="2.05318" ry="2.44431" fill="#EBEBEB"/>
<ellipse cx="40.8003" cy="235.522" rx="2.05318" ry="2.44431" fill="#EBEBEB"/>
<ellipse cx="53.5194" cy="235.522" rx="2.05318" ry="2.44431" fill="#EBEBEB"/>
<ellipse cx="66.2385" cy="235.522" rx="2.05318" ry="2.44431" fill="#EBEBEB"/>
<ellipse cx="78.9576" cy="235.522" rx="2.05318" ry="2.44431" fill="#EBEBEB"/>
<ellipse cx="91.6767" cy="235.522" rx="2.05318" ry="2.44431" fill="#EBEBEB"/>
<ellipse cx="104.396" cy="235.522" rx="2.05318" ry="2.44431" fill="#EBEBEB"/>
<ellipse cx="117.115" cy="235.522" rx="2.05318" ry="2.44431" fill="#EBEBEB"/>
<ellipse cx="129.834" cy="235.522" rx="2.05318" ry="2.44431" fill="#EBEBEB"/>
<ellipse cx="142.553" cy="235.522" rx="2.05318" ry="2.44431" fill="#EBEBEB"/>
<ellipse cx="155.272" cy="235.522" rx="2.05318" ry="2.44431" fill="#EBEBEB"/>
<ellipse cx="167.991" cy="235.522" rx="2.05318" ry="2.44431" fill="#EBEBEB"/>
<ellipse cx="180.71" cy="235.522" rx="2.05318" ry="2.44431" fill="#EBEBEB"/>
<ellipse cx="193.43" cy="235.522" rx="2.05318" ry="2.44431" fill="#EBEBEB"/>
<ellipse cx="206.149" cy="235.522" rx="2.05318" ry="2.44431" fill="#EBEBEB"/>
<ellipse cx="218.868" cy="235.522" rx="2.05318" ry="2.44431" fill="#EBEBEB"/>
<ellipse cx="231.587" cy="235.522" rx="2.05318" ry="2.44431" fill="#EBEBEB"/>
<ellipse cx="244.306" cy="235.522" rx="2.05318" ry="2.44431" fill="#EBEBEB"/>
<ellipse cx="2.6429" cy="252.166" rx="2.05318" ry="2.44431" fill="#EBEBEB"/>
<ellipse cx="15.362" cy="252.166" rx="2.05318" ry="2.44431" fill="#EBEBEB"/>
<ellipse cx="28.0811" cy="252.166" rx="2.05318" ry="2.44431" fill="#EBEBEB"/>
<ellipse cx="40.8003" cy="252.166" rx="2.05318" ry="2.44431" fill="#EBEBEB"/>
<ellipse cx="53.5194" cy="252.166" rx="2.05318" ry="2.44431" fill="#EBEBEB"/>
<ellipse cx="66.2385" cy="252.166" rx="2.05318" ry="2.44431" fill="#EBEBEB"/>
<ellipse cx="78.9576" cy="252.166" rx="2.05318" ry="2.44431" fill="#EBEBEB"/>
<ellipse cx="91.6767" cy="252.166" rx="2.05318" ry="2.44431" fill="#EBEBEB"/>
<ellipse cx="104.396" cy="252.166" rx="2.05318" ry="2.44431" fill="#EBEBEB"/>
<ellipse cx="117.115" cy="252.166" rx="2.05318" ry="2.44431" fill="#EBEBEB"/>
<ellipse cx="129.834" cy="252.166" rx="2.05318" ry="2.44431" fill="#EBEBEB"/>
<ellipse cx="142.553" cy="252.166" rx="2.05318" ry="2.44431" fill="#EBEBEB"/>
<ellipse cx="155.272" cy="252.166" rx="2.05318" ry="2.44431" fill="#EBEBEB"/>
<ellipse cx="167.991" cy="252.166" rx="2.05318" ry="2.44431" fill="#EBEBEB"/>
<ellipse cx="180.71" cy="252.166" rx="2.05318" ry="2.44431" fill="#EBEBEB"/>
<ellipse cx="193.43" cy="252.166" rx="2.05318" ry="2.44431" fill="#EBEBEB"/>
<ellipse cx="206.149" cy="252.166" rx="2.05318" ry="2.44431" fill="#EBEBEB"/>
<ellipse cx="218.868" cy="252.166" rx="2.05318" ry="2.44431" fill="#EBEBEB"/>
<ellipse cx="231.587" cy="252.166" rx="2.05318" ry="2.44431" fill="#EBEBEB"/>
<ellipse cx="244.306" cy="252.166" rx="2.05318" ry="2.44431" fill="#EBEBEB"/>
</svg>
